<svg width="299" height="85" viewBox="0 0 299 85" fill="none" xmlns="http://www.w3.org/2000/svg">
<path d="M44.6403 2.07902C49.7636 -1.5524 56.9417 -0.374183 59.828 5.20299C65.6087 16.3729 68.8738 29.0551 68.8738 42.5C68.8738 55.9449 65.6086 68.6271 59.828 79.797C56.9417 85.3742 49.7635 86.5524 44.6402 82.921C39.5107 79.2852 38.4222 72.2049 41.0008 66.4707C41.5962 65.1467 42.1253 63.7993 42.6349 62.4405C44.1635 58.2234 41.3054 53.8835 36.9173 52.9532C32.523 52.0215 28.2764 54.8815 26.5193 59.0156C24.6739 63.3567 22.1238 67.3257 19.0118 70.7787C17.9186 71.9918 16.756 73.1412 15.5304 74.2207C10.8222 78.3676 3.87769 75.9362 1.12243 70.2995C-1.64042 64.6474 1.1772 57.8568 4.39106 52.4484C6.12184 49.5357 7.11573 46.1339 7.11573 42.5C7.11573 38.8952 6.13774 35.5189 4.43261 32.6219C1.25171 27.2174 -1.53017 20.4521 1.22379 14.8181C3.99113 9.15674 10.9743 6.72668 15.6831 10.9144C16.8711 11.9709 17.9992 13.0935 19.0614 14.2764C22.1508 17.7165 24.684 21.6664 26.5193 25.9844L26.5249 25.9974C28.2854 30.1245 32.5276 32.9775 36.9173 32.0468C41.3054 31.1165 44.1635 26.7765 42.6349 22.5594C42.1402 21.1966 41.5955 19.8516 41.0009 18.5293C38.4223 12.795 39.5108 5.71483 44.6403 2.07902Z" fill="#002DE5"/>
<path d="M98 30.96C100.56 30.96 102.587 31.8267 104.08 33.56C105.6 35.2667 106.36 37.5867 106.36 40.52V53.6H98.52V41.56C98.52 40.28 98.1867 39.28 97.52 38.56C96.8533 37.8133 95.96 37.44 94.84 37.44C93.6667 37.44 92.7467 37.8133 92.08 38.56C91.4133 39.28 91.08 40.28 91.08 41.56V53.6H83.24V24H91.08V34.36C91.7733 33.3467 92.7067 32.5333 93.88 31.92C95.08 31.28 96.4533 30.96 98 30.96Z" fill="white"/>
<path d="M134.022 31.16L119.782 64.28H111.262L116.622 52.64L107.422 31.16H116.142L120.862 43.88L125.422 31.16H134.022Z" fill="white"/>
<path d="M143.113 34.28C143.726 33.24 144.593 32.4133 145.713 31.8C146.833 31.1867 148.153 30.88 149.673 30.88C151.459 30.88 153.073 31.3467 154.513 32.28C155.979 33.2133 157.126 34.5467 157.953 36.28C158.806 38.0133 159.233 40.04 159.233 42.36C159.233 44.68 158.806 46.72 157.953 48.48C157.126 50.2133 155.979 51.5467 154.513 52.48C153.073 53.4133 151.459 53.88 149.673 53.88C148.153 53.88 146.833 53.5733 145.713 52.96C144.619 52.3467 143.753 51.52 143.113 50.48V64.32H135.273V31.16H143.113V34.28ZM151.273 42.36C151.273 40.8933 150.873 39.76 150.073 38.96C149.299 38.1333 148.339 37.72 147.193 37.72C146.046 37.72 145.073 38.1333 144.273 38.96C143.499 39.7867 143.113 40.92 143.113 42.36C143.113 43.8267 143.499 44.9733 144.273 45.8C145.073 46.6267 146.046 47.04 147.193 47.04C148.339 47.04 149.299 46.6267 150.073 45.8C150.873 44.9467 151.273 43.8 151.273 42.36Z" fill="white"/>
<path d="M183.1 42.12C183.1 42.7333 183.06 43.3467 182.98 43.96H168.14C168.22 45.1867 168.554 46.1067 169.14 46.72C169.754 47.3067 170.527 47.6 171.46 47.6C172.767 47.6 173.7 47.0133 174.26 45.84H182.62C182.274 47.3867 181.594 48.7733 180.58 50C179.594 51.2 178.34 52.1467 176.82 52.84C175.3 53.5333 173.62 53.88 171.78 53.88C169.567 53.88 167.594 53.4133 165.86 52.48C164.154 51.5467 162.807 50.2133 161.82 48.48C160.86 46.7467 160.38 44.7067 160.38 42.36C160.38 40.0133 160.86 37.9867 161.82 36.28C162.78 34.5467 164.114 33.2133 165.82 32.28C167.554 31.3467 169.54 30.88 171.78 30.88C173.994 30.88 175.954 31.3333 177.66 32.24C179.367 33.1467 180.7 34.4533 181.66 36.16C182.62 37.84 183.1 39.8267 183.1 42.12ZM175.1 40.16C175.1 39.2 174.78 38.4533 174.14 37.92C173.5 37.36 172.7 37.08 171.74 37.08C170.78 37.08 169.994 37.3467 169.38 37.88C168.767 38.3867 168.367 39.1467 168.18 40.16H175.1Z" fill="white"/>
<path d="M193.349 35.12C194.229 33.84 195.295 32.8267 196.549 32.08C197.802 31.3333 199.149 30.96 200.589 30.96V39.32H198.389C196.682 39.32 195.415 39.6533 194.589 40.32C193.762 40.9867 193.349 42.1467 193.349 43.8V53.6H185.509V31.16H193.349V35.12Z" fill="white"/>
<path d="M201.319 42.36C201.319 40.04 201.799 38.0133 202.759 36.28C203.719 34.5467 205.053 33.2133 206.759 32.28C208.493 31.3467 210.466 30.88 212.679 30.88C215.533 30.88 217.933 31.6667 219.879 33.24C221.826 34.7867 223.079 36.96 223.639 39.76H215.319C214.839 38.2933 213.906 37.56 212.519 37.56C211.533 37.56 210.746 37.9733 210.159 38.8C209.599 39.6 209.319 40.7867 209.319 42.36C209.319 43.9333 209.599 45.1333 210.159 45.96C210.746 46.7867 211.533 47.2 212.519 47.2C213.933 47.2 214.866 46.4667 215.319 45H223.639C223.079 47.7733 221.826 49.9467 219.879 51.52C217.933 53.0933 215.533 53.88 212.679 53.88C210.466 53.88 208.493 53.4133 206.759 52.48C205.053 51.5467 203.719 50.2133 202.759 48.48C201.799 46.7467 201.319 44.7067 201.319 42.36Z" fill="white"/>
<path d="M236.536 53.88C234.296 53.88 232.283 53.4133 230.496 52.48C228.736 51.5467 227.35 50.2133 226.336 48.48C225.323 46.7467 224.816 44.7067 224.816 42.36C224.816 40.04 225.323 38.0133 226.336 36.28C227.376 34.5467 228.776 33.2133 230.536 32.28C232.323 31.3467 234.336 30.88 236.576 30.88C238.816 30.88 240.816 31.3467 242.576 32.28C244.363 33.2133 245.763 34.5467 246.776 36.28C247.816 38.0133 248.336 40.04 248.336 42.36C248.336 44.68 247.816 46.72 246.776 48.48C245.763 50.2133 244.363 51.5467 242.576 52.48C240.79 53.4133 238.776 53.88 236.536 53.88ZM236.536 47.08C237.63 47.08 238.536 46.68 239.256 45.88C240.003 45.0533 240.376 43.88 240.376 42.36C240.376 40.84 240.003 39.68 239.256 38.88C238.536 38.08 237.643 37.68 236.576 37.68C235.51 37.68 234.616 38.08 233.896 38.88C233.176 39.68 232.816 40.84 232.816 42.36C232.816 43.9067 233.163 45.08 233.856 45.88C234.55 46.68 235.443 47.08 236.536 47.08Z" fill="white"/>
<path d="M249.446 42.36C249.446 40.04 249.859 38.0133 250.686 36.28C251.539 34.5467 252.699 33.2133 254.166 32.28C255.633 31.3467 257.259 30.88 259.046 30.88C260.486 30.88 261.766 31.1867 262.886 31.8C264.033 32.3867 264.926 33.2 265.566 34.24V24H273.446V53.6H265.566V50.48C264.953 51.52 264.086 52.3467 262.966 52.96C261.846 53.5733 260.526 53.88 259.006 53.88C257.219 53.88 255.593 53.4133 254.126 52.48C252.686 51.5467 251.539 50.2133 250.686 48.48C249.859 46.72 249.446 44.68 249.446 42.36ZM265.606 42.36C265.606 40.92 265.206 39.7867 264.406 38.96C263.633 38.1333 262.673 37.72 261.526 37.72C260.353 37.72 259.379 38.1333 258.606 38.96C257.833 39.76 257.446 40.8933 257.446 42.36C257.446 43.8 257.833 44.9467 258.606 45.8C259.379 46.6267 260.353 47.04 261.526 47.04C262.673 47.04 263.633 46.6267 264.406 45.8C265.206 44.9733 265.606 43.8267 265.606 42.36Z" fill="white"/>
<path d="M298.553 42.12C298.553 42.7333 298.513 43.3467 298.433 43.96H283.593C283.673 45.1867 284.007 46.1067 284.593 46.72C285.207 47.3067 285.98 47.6 286.913 47.6C288.22 47.6 289.153 47.0133 289.713 45.84H298.073C297.727 47.3867 297.047 48.7733 296.033 50C295.047 51.2 293.793 52.1467 292.273 52.84C290.753 53.5333 289.073 53.88 287.233 53.88C285.02 53.88 283.047 53.4133 281.313 52.48C279.607 51.5467 278.26 50.2133 277.273 48.48C276.313 46.7467 275.833 44.7067 275.833 42.36C275.833 40.0133 276.313 37.9867 277.273 36.28C278.233 34.5467 279.567 33.2133 281.273 32.28C283.007 31.3467 284.993 30.88 287.233 30.88C289.447 30.88 291.407 31.3333 293.113 32.24C294.82 33.1467 296.153 34.4533 297.113 36.16C298.073 37.84 298.553 39.8267 298.553 42.12ZM290.553 40.16C290.553 39.2 290.233 38.4533 289.593 37.92C288.953 37.36 288.153 37.08 287.193 37.08C286.233 37.08 285.447 37.3467 284.833 37.88C284.22 38.3867 283.82 39.1467 283.633 40.16H290.553Z" fill="white"/>
</svg>
